<?xml version="1.0" encoding="UTF-8" standalone="no"?>
<svg
   version="1.1"
   id="svg5"
   sodipodi:docname="minima-cv-icons.svg"
   inkscape:version="1.1 (c68e22c387, 2021-05-23)"
   xmlns:inkscape="http://www.inkscape.org/namespaces/inkscape"
   xmlns:sodipodi="http://sodipodi.sourceforge.net/DTD/sodipodi-0.dtd"
   xmlns="http://www.w3.org/2000/svg"
   xmlns:svg="http://www.w3.org/2000/svg">
  <defs
     id="defs9" />
  <sodipodi:namedview
     id="namedview7"
     pagecolor="#ffffff"
     bordercolor="#666666"
     borderopacity="1.0"
     inkscape:pageshadow="2"
     inkscape:pageopacity="0.0"
     inkscape:pagecheckerboard="0"
     showgrid="false"
     inkscape:zoom="2.53"
     inkscape:cx="164.22925"
     inkscape:cy="80.434783"
     inkscape:window-width="1366"
     inkscape:window-height="705"
     inkscape:window-x="-8"
     inkscape:window-y="-8"
     inkscape:window-maximized="1"
     inkscape:current-layer="orcid" />
  <symbol
     id="orcid"
     fill-rule="evenodd"
     clip-rule="evenodd"
     stroke-linejoin="round"
     stroke-miterlimit="1.414">
    <!-- <path d="M8 16c-4.41 0-8-3.59-8-8s3.59-8 8-8 8 3.59 8 8-3.59 8-8 8zm6.747-6.905c-.234-.074-2.115-.635-4.257-.292.894 2.456 1.258 4.456 1.328 4.872 1.533-1.037 2.624-2.68 2.93-4.58zM10.67 14.3c-.102-.6-.5-2.688-1.46-5.18l-.044.014C5.312 10.477 3.93 13.15 3.806 13.4c1.158.905 2.614 1.444 4.194 1.444.947 0 1.85-.194 2.67-.543zm-7.747-1.72c.155-.266 2.03-3.37 5.555-4.51.09-.03.18-.056.27-.08-.173-.39-.36-.778-.555-1.16-3.413 1.02-6.723.977-7.023.97l-.003.208c0 1.755.665 3.358 1.756 4.57zM1.31 6.61c.307.005 3.122.017 6.318-.832-1.132-2.012-2.353-3.705-2.533-3.952-1.912.902-3.34 2.664-3.784 4.785zM6.4 1.368c.188.253 1.43 1.943 2.548 4 2.43-.91 3.46-2.293 3.582-2.468C11.323 1.827 9.736 1.176 8 1.176c-.55 0-1.087.066-1.6.19zm6.89 2.322c-.145.194-1.29 1.662-3.816 2.694.16.325.31.656.453.99.05.117.1.235.147.352 2.274-.286 4.533.172 4.758.22-.015-1.613-.59-3.094-1.543-4.257z"/> -->
    <path
       d="m 7.2709717,15.980009 c -1.85316,-0.19109 -3.49129,-0.94365 -4.79701,-2.20375 -0.71857,-0.69347 -1.20465,-1.35202 -1.62956998,-2.20778 -1.98605002,-3.9998101 -0.35053,-8.7991801 3.66721998,-10.76132005 2.10101,-1.02607 4.56745,-1.07636 6.7010203,-0.13665 1.73148,0.76262995 3.11824,2.08447995 3.95522,3.77010995 0.39718,0.79989 0.6473,1.60463 0.77227,2.48467 0.0798,0.5622 0.0798,1.59632 0,2.15852 -0.19202,1.3522401 -0.73279,2.6681601 -1.52979,3.7226701 -0.2524,0.33394 -0.34602,0.44045 -0.73775,0.83923 -1.19679,1.21832 -2.77208,2.01761 -4.4866803,2.27649 -0.47885,0.0723 -1.48099,0.10255 -1.91493,0.0578 z m 2.9714003,-4.40686 c 1.10211,-0.24413 1.91105,-0.85616 2.38062,-1.8011101 0.0976,-0.19642 0.20665,-0.47838 0.25405,-0.65694 0.0741,-0.27915 0.083,-0.36841 0.0823,-0.829 -6.4e-4,-0.45304 -0.0105,-0.5528 -0.0806,-0.81567 -0.30884,-1.15759 -1.0524,-1.96659 -2.13611,-2.3241 -0.54368,-0.17936 -0.59201,-0.18349 -2.3219903,-0.19852 l -1.60325,-0.0139 v 3.36813 3.3681201 l 1.55633,-0.0139 c 1.46206,-0.0131 1.57524,-0.0181 1.8686703,-0.0831 z M 7.7871417,8.2985689 v -2.49016 l 1.02452,0.0155 c 1.08188,0.0164 1.2097903,0.0309 1.6376103,0.18623 0.57611,0.20911 1.01322,0.58733 1.25995,1.0902 0.19183,0.39098 0.24118,0.59257 0.26125,1.06732 0.0211,0.49894 -0.0524,0.86019 -0.25837,1.27051 -0.39075,0.7783301 -1.02727,1.2010901 -1.9845903,1.3181301 -0.1458,0.0178 -0.64203,0.0324 -1.10273,0.0324 h -0.83764 z m -2.3775,-0.0125 v -3.34728 h -0.48489 -0.48488 v 3.34728 3.3472701 h 0.48488 0.48489 z m -0.30968,-4.13367 c 0.27123,-0.0908 0.43481,-0.3145 0.43481,-0.59458 0,-0.31538 -0.19312,-0.55555 -0.50262,-0.62509 -0.27532,-0.0619 -0.58443,0.10862 -0.70019,0.38617 -0.1972,0.4728 0.28436,0.99543 0.768,0.8335 z"
       id="path2"
       style="stroke-width:0.0312829" />
  </symbol>
</svg>
