<svg xmlns="http://www.w3.org/2000/svg" xmlns:xlink="http://www.w3.org/1999/xlink">
<symbol id="orcid" fill-rule="evenodd" clip-rule="evenodd" stroke-linejoin="round" stroke-miterlimit="1.414"><path d="m 7.2709717,15.980009 c -1.85316,-0.19109 -3.49129,-0.94365 -4.79701,-2.20375 -0.71857,-0.69347 -1.20465,-1.35202 -1.62956998,-2.20778 -1.98605002,-3.9998101 -0.35053,-8.7991801 3.66721998,-10.76132005 2.10101,-1.02607 4.56745,-1.07636 6.7010203,-0.13665 1.73148,0.76262995 3.11824,2.08447995 3.95522,3.77010995 0.39718,0.79989 0.6473,1.60463 0.77227,2.48467 0.0798,0.5622 0.0798,1.59632 0,2.15852 -0.19202,1.3522401 -0.73279,2.6681601 -1.52979,3.7226701 -0.2524,0.33394 -0.34602,0.44045 -0.73775,0.83923 -1.19679,1.21832 -2.77208,2.01761 -4.4866803,2.27649 -0.47885,0.0723 -1.48099,0.10255 -1.91493,0.0578 z m 2.9714003,-4.40686 c 1.10211,-0.24413 1.91105,-0.85616 2.38062,-1.8011101 0.0976,-0.19642 0.20665,-0.47838 0.25405,-0.65694 0.0741,-0.27915 0.083,-0.36841 0.0823,-0.829 -6.4e-4,-0.45304 -0.0105,-0.5528 -0.0806,-0.81567 -0.30884,-1.15759 -1.0524,-1.96659 -2.13611,-2.3241 -0.54368,-0.17936 -0.59201,-0.18349 -2.3219903,-0.19852 l -1.60325,-0.0139 v 3.36813 3.3681201 l 1.55633,-0.0139 c 1.46206,-0.0131 1.57524,-0.0181 1.8686703,-0.0831 z M 7.7871417,8.2985689 v -2.49016 l 1.02452,0.0155 c 1.08188,0.0164 1.2097903,0.0309 1.6376103,0.18623 0.57611,0.20911 1.01322,0.58733 1.25995,1.0902 0.19183,0.39098 0.24118,0.59257 0.26125,1.06732 0.0211,0.49894 -0.0524,0.86019 -0.25837,1.27051 -0.39075,0.7783301 -1.02727,1.2010901 -1.9845903,1.3181301 -0.1458,0.0178 -0.64203,0.0324 -1.10273,0.0324 h -0.83764 z m -2.3775,-0.0125 v -3.34728 h -0.48489 -0.48488 v 3.34728 3.3472701 h 0.48488 0.48489 z m -0.30968,-4.13367 c 0.27123,-0.0908 0.43481,-0.3145 0.43481,-0.59458 0,-0.31538 -0.19312,-0.55555 -0.50262,-0.62509 -0.27532,-0.0619 -0.58443,0.10862 -0.70019,0.38617 -0.1972,0.4728 0.28436,0.99543 0.768,0.8335 z"/></symbol>
<symbol id="gscholar" fill-rule="evenodd" clip-rule="evenodd" stroke-linejoin="round" stroke-miterlimit="1.414"><path d="M 7.601757,15.990182 C 7.5522453,15.986024 7.3946395,15.972418 7.2513959,15.960702 7.1081522,15.948607 6.8374634,15.912853 6.6495837,15.881067 5.2514275,15.644545 3.9379324,15.033584 2.8278889,14.103451 2.5962046,13.909449 2.0884645,13.401573 1.8941218,13.169738 0.89655643,11.979718 0.25876323,10.54005 0.06744413,9.0464641 -0.11057107,7.6563758 0.06491183,6.270256 0.58081573,4.9932468 0.86616913,4.2872989 1.2765111,3.5899188 1.7730639,2.9678116 2.045567,2.6261818 2.6325257,2.0394017 2.9741939,1.7667064 4.1933521,0.79356217 5.5647115,0.22301127 7.1313207,0.03712367 c 0.4122317,-0.048907 1.2986793,-0.049625 1.7274654,-0.00136 1.6060299,0.1807361 3.0756939,0.8111771 4.3173409,1.85198963 0.231684,0.1943423 0.739689,0.7022328 0.933729,0.9337693 1.059701,1.2646503 1.694999,2.7743449 1.861487,4.4235147 0.05745,0.5711556 0.02646,1.4573333 -0.07446,2.0616352 -0.453996,2.7411035 -2.32924,5.0780805 -4.902523,6.1096175 -0.716408,0.287167 -1.3442608,0.444346 -2.1417008,0.536124 -0.2517157,0.0291 -1.0676753,0.05367 -1.2510196,0.03787 z m 0.870687,-2.77021 c 1.1951962,-0.197706 2.069549,-0.753253 2.37123,-1.506626 0.109228,-0.27254 0.129638,-0.392891 0.128504,-0.755463 -8.69e-4,-0.272881 -0.0076,-0.357315 -0.04384,-0.48606 C 10.772997,9.9049908 10.38658,9.4433276 9.7286793,9.0384326 9.4531527,8.8687704 9.2614178,8.6883367 9.1787976,8.5205038 9.1183254,8.3975186 9.1130341,8.3712132 9.1130341,8.1956928 c 0,-0.1765786 0.00378,-0.2013722 0.067653,-0.3285149 C 9.2604352,7.7055283 9.4278677,7.5283827 9.6934543,7.3256158 10.072842,7.0358409 10.241862,6.8569416 10.362655,6.617298 c 0.111874,-0.2216304 0.147023,-0.3948642 0.147779,-0.7234471 8.32e-4,-0.3412141 -0.0378,-0.5329448 -0.170078,-0.8394743 -0.04535,-0.1052215 -0.08655,-0.2319484 -0.09146,-0.2816112 -0.0076,-0.078954 -0.0021,-0.097436 0.048,-0.1475142 0.05972,-0.059678 0.328818,-0.2701215 1.087971,-0.8508054 l 0.450367,-0.3444267 0.02646,0.065915 c 0.04195,0.1023491 0.0189,0.2270729 -0.08844,0.4563533 l -0.09751,0.2101785 -0.01512,0.7305828 c -0.0076,0.4018185 -0.03024,0.9917847 -0.04573,1.3110398 -0.03402,0.6697177 -0.03969,1.2837669 -0.01134,1.4711663 0.02268,0.14056 0.09638,0.282027 0.179905,0.3440109 0.04082,0.030236 0.09109,0.038475 0.253606,0.041953 0.233196,0.00491 0.285731,-0.018142 0.356408,-0.1570764 0.03817,-0.07491 0.04006,-0.1170514 0.03893,-0.8593923 -8.31e-4,-0.5282204 -0.01134,-0.9553541 -0.03779,-1.321048 -0.03024,-0.4687272 -0.03402,-0.58469 -0.01134,-0.8740303 0.03402,-0.4650837 0.0076,-0.6326823 -0.150047,-0.9953413 -0.07824,-0.1785817 -0.110739,-0.429205 -0.07105,-0.54928 0.01512,-0.050683 0.108472,-0.1535992 0.312566,-0.3507384 0.15874,-0.153448 0.288755,-0.284408 0.288755,-0.2910222 0,-0.0068 -1.330805,-0.011716 -2.9573195,-0.011716 L 6.848802,2.6520424 6.4373262,3.0168406 C 6.2109332,3.2174947 5.7511173,3.624854 5.415383,3.9220899 5.079762,4.2193105 4.4743214,4.7552486 4.0702533,5.1130358 l -0.734662,0.6505139 1.1190766,0.00529 1.1190768,0.00529 0.011339,0.1449442 c 0.083527,0.9183564 0.5532077,1.5726235 1.3345846,1.8586378 0.2528496,0.092636 0.4731954,0.1348151 0.8436257,0.1616118 0.2641881,0.019276 0.3337312,0.029858 0.3257942,0.05091 -0.093732,0.2444587 -0.1028028,0.5950761 -0.022677,0.8359594 0.057071,0.169322 0.096756,0.2444964 0.2063616,0.3898525 l 0.067275,0.089612 -0.3367548,0.033638 C 7.5859963,9.3810594 7.3459215,9.4206304 6.986225,9.5068411 5.8336618,9.7830854 5.1474152,10.275752 4.962748,10.959563 c -0.04989,0.184478 -0.045354,0.576995 0.00756,0.781761 0.1757475,0.664559 0.7440355,1.123044 1.6831695,1.357853 0.6219949,0.155526 1.3210541,0.20209 1.8127313,0.120755 z M 7.7518793,12.788915 C 6.9913652,12.664909 6.367594,12.256439 6.1097555,11.713531 5.7866069,11.033099 6.1059759,10.294447 6.8912081,9.9017405 7.2377896,9.728639 7.5945759,9.6499118 8.0320926,9.650063 8.3843435,9.6502141 8.6161034,9.686346 8.9220173,9.7886576 9.9806974,10.142873 10.503178,11.039191 10.112187,11.830431 9.8907072,12.278575 9.4030363,12.615228 8.762673,12.76194 8.5298548,12.81527 8.0001935,12.82941 7.7518793,12.78878 Z M 8.1022404,7.6238191 C 7.5918169,7.4902513 7.0798059,6.9989869 6.8179611,6.3916122 6.4464347,5.529578 6.5790957,4.5959449 7.1290152,4.2034353 7.3380224,4.0542581 7.4461165,4.0224724 7.7418258,4.0230772 c 0.2377316,4.762e-4 0.2592748,0.00416 0.4310538,0.070563 0.6344672,0.2457815 1.154642,0.9198795 1.3082793,1.695465 0.074079,0.3746249 0.071433,0.6541612 -0.011339,0.9754497 C 9.3670175,7.1690648 9.081135,7.4975495 8.7320589,7.6121366 8.574831,7.6637266 8.2748131,7.6692826 8.1011444,7.6238526 Z"/></symbol>
<symbol id="scopus" fill-rule="evenodd" clip-rule="evenodd" stroke-linejoin="round" stroke-miterlimit="1.414"><path d="M 8.0000001,16 H 0 V 8 0 H 8.0000001 16 v 8 8 z M 4.8125,11.64466 l 0.40626,-0.0319 0.3750001,-0.12264 0.375,-0.12264 0.29697,-0.21566 0.29698,-0.21566 0.18903,-0.26096 0.18904,-0.26096 0.0998,-0.34324 0.0998,-0.34325 -0.0335,-0.36896 -0.0335,-0.36897 L 6.8573101,8.66438 6.6412301,8.33895 6.3004701,8.10426 5.9597101,7.86957 4.76591,7.40763 3.57212,6.94569 3.31958,6.77856 3.06703,6.61143 2.9321,6.3327 2.79716,6.05396 2.82776,5.7827 2.85836,5.51143 3.00165,5.3102 3.14494,5.10898 3.4631,4.9669 3.78125,4.82482 4.13493,4.78362 4.4886,4.74242 l 0.39633,0.0707 0.39632,0.0707 0.5390001,0.21433 0.539,0.21434 h 0.0381 0.0381 l 0.1573,-0.31043 0.1573,-0.31042 v -0.0374 -0.0374 l -0.45312,-0.20912 -0.45312,-0.20913 -0.375,-0.0957 L 5.0938,4.00719 4.71533,3.96559 4.33685,3.92399 3.88797,3.99359 3.4391,4.06319 3.10239,4.2121 2.76568,4.36101 2.50301,4.59831 2.24034,4.83562 2.07656,5.15208 1.91278,5.46855 l 0.003,0.46875 0.003,0.46875 0.10229,0.23988 0.10229,0.23989 0.18222,0.22886 0.18221,0.22887 0.34549,0.20806 0.34549,0.20807 0.95756,0.36267 0.95756,0.36267 0.3459101,0.15425 0.34592,0.15425 0.16722,0.19873 0.16722,0.19873 0.0407,0.21691 0.0407,0.21691 -0.0397,0.21176 -0.0397,0.21177 -0.14082,0.20896 -0.14082,0.20897 -0.34203,0.17436 L 5.15646,10.81498 4.7377,10.85368 4.31895,10.89238 3.9252,10.81658 3.53145,10.74078 2.87521,10.4202 2.21895,10.09962 l -0.0433,-0.0226 -0.0433,-0.0226 -0.19003,0.33215 -0.19002,0.33215 0.13959,0.11167 0.13959,0.11167 0.34987,0.18131 0.34988,0.18131 0.41462,0.13395 0.41462,0.13395 0.423,0.052 0.42301,0.052 z m 6.81251,0.033 0.0937,0.007 0.61812,-0.0601 0.61812,-0.0601 0.36626,-0.10277 0.36626,-0.10276 v -0.0495 -0.0495 l -0.0732,-0.31726 -0.0732,-0.31727 -0.0361,10e-6 -0.0361,10e-6 -0.49999,0.0986 -0.5,0.0986 -0.65626,-0.001 -0.65624,-10e-4 -0.40626,-0.12779 -0.40624,-0.12779 -0.31251,-0.23757 -0.3124899,-0.23758 -0.20542,-0.34158 -0.20541,-0.34158 -0.10709,-0.34375 -0.10709,-0.34375 v -0.9375 -0.9375 l 0.1468,-0.42511 0.1468,-0.42511 0.19875,-0.26059 0.19876,-0.26058 0.2664599,-0.20324 0.26645,-0.20323 0.41924,-0.12969 0.41925,-0.1297 0.68784,-0.001 0.68785,-0.001 0.46131,0.0962 0.46131,0.0962 0.0463,-0.0286 0.0463,-0.0286 0.0702,-0.27874 0.0702,-0.27874 V 4.3249 4.2671 l -0.37188,-0.10435 -0.37188,-0.10434 -0.616,-0.0535 -0.616,-0.0535 -0.4965,0.0532 -0.49649,0.0532 -0.25,0.0723 -0.25,0.0723 -0.3749999,0.189 -0.37501,0.18901 -0.38489,0.3923 -0.3849,0.39231 -0.18816,0.39593 -0.18817,0.39594 -0.10988,0.40625 -0.10989,0.40625 -10e-4,0.8125 -10e-4,0.8125 0.10614,0.42586 0.10614,0.42587 0.19982,0.41432 0.19982,0.41432 0.37828,0.38555 0.37827,0.38555 0.375,0.18755 0.3749999,0.18755 0.23574,0.0764 0.23573,0.0764 0.42052,0.049 0.42051,0.049 0.0937,0.007 z"/></symbol>
<symbol id="researchgate" fill-rule="evenodd" clip-rule="evenodd" stroke-linejoin="round" stroke-miterlimit="1.414"><path d="m 2.0070175,15.920434 c -1.01304,-0.16867 -1.76075,-0.93743 -1.93072,-1.98509 -0.10173,-0.62699 -0.10173,-11.2436895 0,-11.8706895 0.17517,-1.07971002 0.9114,-1.81376002 1.99559,-1.98968002 0.62033,-0.10066 11.2425095,-0.0996 11.8636515,0.001 1.07971,0.17518 1.81376,0.91141 1.98968,1.99560002 0.0997,0.61447 0.0997,11.2421195 0,11.8565995 -0.175921,1.08418 -0.90997,1.82042 -1.98968,1.99559 -0.56553,0.0918 -11.3755015,0.0886 -11.9285215,-0.003 z m 7.15567,-3.96579 c 0.16891,-0.10704 0.0606,-0.31541 -0.19883,-0.38264 -0.33767,-0.0875 -0.99459,-0.77844 -1.58586,-1.6680095 -0.26399,-0.39717 -0.47998,-0.75013 -0.47998,-0.78436 0,-0.0342 0.10491,-0.11226 0.23313,-0.1734 0.67682,-0.32276 1.07519,-0.95171 1.07959,-1.70452 0.002,-0.41462 -0.0239,-0.51146 -0.21055,-0.7748 -0.123179,-0.17378 -0.37859,-0.39422 -0.60441,-0.52166 l -0.3911,-0.2207 h -1.67103 c -1.59988,0 -1.67103,0.006 -1.67103,0.1364 0,0.10128 0.0915,0.16537 0.35554,0.24888 l 0.355541,0.11247 0.0561,0.53331 c 0.0308,0.29332 0.0468,1.43616 0.0356,2.53965 -0.0226,2.2128095 -0.011,2.1579595 -0.48272,2.2768895 -0.177,0.0446 -0.25544,0.10774 -0.2716,0.21853 -0.0227,0.15542 -0.0197,0.15579 1.26711,0.15579 h 1.28983 l -0.0227,-0.15935 c -0.0188,-0.13165 -0.0827,-0.16789 -0.36743,-0.20843 -0.18959,-0.027 -0.36338,-0.0677 -0.386199,-0.0905 -0.0779,-0.0779 -0.147551,-0.78505 -0.152741,-1.5504595 l -0.005,-0.76441 h 0.34127 0.34126 l 0.565361,0.8985395 c 0.659879,1.04876 1.162039,1.63224 1.560539,1.81328 0.29813,0.13544 0.85658,0.1735 1.02061,0.0696 z m -3.82904,-4.5505795 v -1.21731 h 0.5538 c 0.73189,0 1.11777,0.18256 1.35268,0.63997 0.2739,0.53334 0.11447,1.23926 -0.35547,1.57388 -0.18904,0.13461 -0.34379,0.16798 -0.88992,0.19186 l -0.66109,0.0289 z m 5.6080305,-0.48844 c 0.37969,-0.28348 0.470111,-0.48827 0.496751,-1.12512 l 0.0251,-0.59926 h -0.57616 -0.57616 v 0.24888 c 0,0.24295 0.007,0.24888 0.28443,0.24888 0.281671,0 0.28441,0.003 0.28217,0.26665 -0.003,0.31547 -0.11298,0.48176 -0.3892,0.58678 -0.27382,0.10411 -0.5725495,0.0268 -0.7453905,-0.19296 -0.123409,-0.15688 -0.14309,-0.28801 -0.14309,-0.95337 0,-0.74117 0.008,-0.78007 0.19555,-0.99022 0.2418405,-0.27053 0.5496305,-0.29681 0.8629905,-0.0737 0.12177,0.0867 0.2214,0.18747 0.2214,0.22392 0,0.1072 0.16441,0.0734 0.35499,-0.0731 l 0.17722,-0.13615 -0.14395,-0.19281 c -0.33704,-0.45143 -1.11041,-0.59846 -1.6635305,-0.31628 -0.44335,0.22618 -0.58158,0.59958 -0.58509,1.58039 -0.004,1.07406 0.11872,1.3711 0.66844,1.62009 0.3253805,0.14738 0.9772805,0.0836 1.2535515,-0.12268 z"/></symbol>
<symbol id="publons" fill-rule="evenodd" clip-rule="evenodd" stroke-linejoin="round" stroke-miterlimit="1.414"><path d="M 0,8 V 0 h 8 8 v 8 8 H 8 0 Z m 8.06522,4.61036 c 0.0119,-9.1e-4 0.0217,-0.10462 0.0217,-0.23045 0,-0.18188 -0.009,-0.23239 -0.0459,-0.24637 -0.0252,-0.01 -0.19276,-0.0176 -0.37232,-0.0176 -0.36281,0 -0.39439,-0.0143 -0.45539,-0.20615 -0.0273,-0.0858 -0.0981,-2.88987 -0.0736,-2.91437 0.005,-0.005 0.0735,0.0161 0.1529,0.0463 C 7.728,9.20715 8.41358,9.247 8.88392,9.13422 9.23027,9.05112 9.72083,8.80543 9.99396,8.57817 10.39543,8.24413 10.73985,7.72393 10.92448,7.17277 11.17299,6.43091 11.18007,5.45014 10.94118,4.86218 10.72652,4.33387 10.24268,3.82703 9.73199,3.59547 9.18684,3.34829 8.50467,3.36946 7.89342,3.65257 7.6079,3.78479 7.44297,3.89537 7.24798,4.0853 7.16738,4.1639 7.10134,4.21633 7.10134,4.2019 7.10134,4.0727 7.00023,3.53588 6.9658,3.48226 6.9277,3.42296 6.9065,3.41626 6.80769,3.43206 6.7015,3.44906 5.04559,4.14959 4.96226,4.21279 c -0.0238,0.018 -0.0344,0.0774 -0.029,0.16151 0.008,0.12757 0.0149,0.13651 0.16314,0.21993 0.36204,0.20376 0.50877,0.31769 0.57657,0.44769 l 0.0672,0.12885 -0.008,3.36391 c -0.007,3.11255 -0.0115,3.37068 -0.0575,3.45459 -0.0646,0.11806 -0.0929,0.1267 -0.41412,0.1267 -0.14884,0 -0.29125,0.008 -0.31647,0.0176 -0.0364,0.014 -0.0459,0.0643 -0.0459,0.24396 0,0.12512 0.013,0.23069 0.029,0.23603 0.0223,0.007 3.03938,0.004 3.13769,-0.003 z M 8.00762,8.62278 C 7.65127,8.54538 7.32464,8.31599 7.20622,8.06 7.14652,7.93105 7.14472,7.88553 7.13632,6.34254 L 7.12732,4.75755 7.2864,4.60099 C 7.67977,4.21385 8.28852,4.09503 8.73993,4.31726 8.99792,4.44426 9.23866,4.71059 9.40551,5.05356 9.65067,5.55752 9.75579,6.15103 9.73128,6.89288 9.71518,7.3801 9.64808,7.69277 9.49455,7.99573 9.40935,8.16378 9.18521,8.41754 9.0421,8.50788 8.798,8.66198 8.39408,8.70682 8.00724,8.62278 Z"/></symbol>
<symbol id="inaturalist" fill-rule="evenodd" clip-rule="evenodd" stroke-linejoin="round" stroke-miterlimit="1.414"><path d="m 184.14388,121.11299 c 63.70231,6.50013 113.77649,29.77577 150.22254,69.82693 1.42257,1.56329 5.37281,5.9836 8.39141,4.88886 3.01861,-1.09474 6.70245,-7.94621 8.31374,-10.33167 2.53023,-3.74592 10.34673,-17.03675 27.36068,-22.51044 17.01396,-5.47368 38.57275,0.61748 39.35556,0.88704 1.47126,0.50662 2.9563,1.17094 2.10856,2.35754 -0.84774,1.18661 -8.05062,4.04258 -12.94428,13.36988 -5.23538,9.97859 -8.3124,29.28396 -9.06737,33.53861 -2.97353,17.52147 -10.10403,33.76783 -20.41687,47.57505 -18.14451,24.29258 -46.14002,41.03478 -78.67842,43.88706 -17.78806,1.55928 -34.95851,-1.20571 -50.47777,-7.42583 18.80615,-1.8396 41.5675,-10.7383 59.85124,-32.04396 23.06935,-26.88223 -2.17716,-12.92433 -23.85623,-16.48223 -15.1888,-2.49273 -27.55137,-10.27275 -48.30022,-36.58497 6.65608,-1.85465 19.77745,-4.11714 30.3615,-4.56823 -19.57688,-4.48096 -45.54829,-16.82302 -57.0392,-35.83696 9.23471,-3.19299 21.38641,-2.03361 31.09517,-1.61348 -36.9784,-22.1823 -52.92634,-34.13181 -56.28004,-48.9332 z m 88.36279,-24.084213 c 2.18535,1.06181 35.131,15.320073 51.04186,36.673683 22.22791,29.83158 23.05116,58.56843 17.01396,52 -14.18667,-15.43494 -27.22909,-25.3186 -43.35815,-36.4 -12.34883,-8.48421 -20.60163,-32.66557 -24.69767,-52.273683 z m 114.11431,72.023193 c -3.3009,0.28879 -5.7427,3.19881 -5.45391,6.49971 0.28879,3.3009 3.19881,5.7427 6.49971,5.45391 3.3009,-0.28879 5.7427,-3.19881 5.45391,-6.49971 -0.28879,-3.3009 -3.19881,-5.7427 -6.49971,-5.45391 z" /></symbol>
 
</svg>
