<svg xmlns="http://www.w3.org/2000/svg"  xmlns:xlink="http://www.w3.org/1999/xlink">
<symbol id="orcid" fill-rule="evenodd" clip-rule="evenodd" stroke-linejoin="round" stroke-miterlimit="1.414">
<!-- <path d="M8 16c-4.41 0-8-3.59-8-8s3.59-8 8-8 8 3.59 8 8-3.59 8-8 8zm6.747-6.905c-.234-.074-2.115-.635-4.257-.292.894 2.456 1.258 4.456 1.328 4.872 1.533-1.037 2.624-2.68 2.93-4.58zM10.67 14.3c-.102-.6-.5-2.688-1.46-5.18l-.044.014C5.312 10.477 3.93 13.15 3.806 13.4c1.158.905 2.614 1.444 4.194 1.444.947 0 1.85-.194 2.67-.543zm-7.747-1.72c.155-.266 2.03-3.37 5.555-4.51.09-.03.18-.056.27-.08-.173-.39-.36-.778-.555-1.16-3.413 1.02-6.723.977-7.023.97l-.003.208c0 1.755.665 3.358 1.756 4.57zM1.31 6.61c.307.005 3.122.017 6.318-.832-1.132-2.012-2.353-3.705-2.533-3.952-1.912.902-3.34 2.664-3.784 4.785zM6.4 1.368c.188.253 1.43 1.943 2.548 4 2.43-.91 3.46-2.293 3.582-2.468C11.323 1.827 9.736 1.176 8 1.176c-.55 0-1.087.066-1.6.19zm6.89 2.322c-.145.194-1.29 1.662-3.816 2.694.16.325.31.656.453.99.05.117.1.235.147.352 2.274-.286 4.533.172 4.758.22-.015-1.613-.59-3.094-1.543-4.257z"/> -->
   <path d="M 232.69579,511.07524 C 173.45713,504.96698 121.09211,480.91047 79.352962,440.62951 56.382892,418.46192 40.844852,397.41058 27.261812,370.0551 -36.225028,242.19614 16.056432,88.777881 144.48906,26.055511 211.65074,-6.7440927 290.49357,-8.3518367 358.69579,21.687459 c 55.34921,24.37826 99.67886,66.633132 126.43398,120.516461 12.69622,25.56947 20.69172,51.29388 24.68657,79.42559 2.55206,17.97156 2.55206,51.02844 0,69 -6.1383,43.22588 -23.42464,85.29124 -48.90185,119 -8.06809,10.67485 -11.06089,14.0793 -23.58317,26.82694 -38.25678,38.94531 -88.61292,64.49545 -143.42231,72.77086 -15.30708,2.31115 -47.34202,3.27823 -61.21322,1.84793 z m 94.98447,-140.87096 c 35.23029,-7.80381 61.08939,-27.36801 76.09979,-57.57477 3.12001,-6.27867 6.60558,-15.29212 8.12087,-21 2.36887,-8.92321 2.65221,-11.7767 2.63132,-26.5 -0.0205,-14.48184 -0.33582,-17.67099 -2.57762,-26.07377 -9.87244,-37.00407 -33.64132,-62.86479 -68.28363,-74.29313 -17.37921,-5.73332 -18.92426,-5.86542 -74.2252,-6.34584 l -51.25,-0.44524 v 107.66648 107.66648 l 49.75,-0.44428 c 46.7366,-0.41738 50.35477,-0.57825 59.73447,-2.65593 z M 249.19579,265.52819 v -79.60131 l 32.75,0.49623 c 34.58379,0.52402 38.67266,0.989 52.34819,5.95295 18.41622,6.68473 32.38901,18.775 40.27616,34.84988 6.13218,12.49803 7.70954,18.94232 8.35107,34.11818 0.67422,15.94927 -1.67414,27.49722 -8.25909,40.61365 -12.49079,24.88014 -32.83789,38.39431 -63.4401,42.13574 -4.66057,0.5698 -20.52307,1.036 -35.25,1.036 h -26.77623 z m -76,-0.39868 v -107 h -15.5 -15.5 v 107 107 h 15.5 15.5 z m -9.89922,-132.1381 c 8.67013,-2.90287 13.89922,-10.05334 13.89922,-19.00634 0,-10.08157 -6.17323,-17.758969 -16.06707,-19.981969 -8.80074,-1.97739 -18.68183,3.47223 -22.38225,12.344289 -6.3038,15.11387 9.08974,31.82034 24.5501,26.64402 z"/>
 
</symbol>
</svg>
