<svg xmlns="http://www.w3.org/2000/svg" xmlns:xlink="http://www.w3.org/1999/xlink">
<symbol id="orcid" fill-rule="evenodd" clip-rule="evenodd" stroke-linejoin="round" stroke-miterlimit="1.414"><path d="m 7.2709717,15.980009 c -1.85316,-0.19109 -3.49129,-0.94365 -4.79701,-2.20375 -0.71857,-0.69347 -1.20465,-1.35202 -1.62956998,-2.20778 -1.98605002,-3.9998101 -0.35053,-8.7991801 3.66721998,-10.76132005 2.10101,-1.02607 4.56745,-1.07636 6.7010203,-0.13665 1.73148,0.76262995 3.11824,2.08447995 3.95522,3.77010995 0.39718,0.79989 0.6473,1.60463 0.77227,2.48467 0.0798,0.5622 0.0798,1.59632 0,2.15852 -0.19202,1.3522401 -0.73279,2.6681601 -1.52979,3.7226701 -0.2524,0.33394 -0.34602,0.44045 -0.73775,0.83923 -1.19679,1.21832 -2.77208,2.01761 -4.4866803,2.27649 -0.47885,0.0723 -1.48099,0.10255 -1.91493,0.0578 z m 2.9714003,-4.40686 c 1.10211,-0.24413 1.91105,-0.85616 2.38062,-1.8011101 0.0976,-0.19642 0.20665,-0.47838 0.25405,-0.65694 0.0741,-0.27915 0.083,-0.36841 0.0823,-0.829 -6.4e-4,-0.45304 -0.0105,-0.5528 -0.0806,-0.81567 -0.30884,-1.15759 -1.0524,-1.96659 -2.13611,-2.3241 -0.54368,-0.17936 -0.59201,-0.18349 -2.3219903,-0.19852 l -1.60325,-0.0139 v 3.36813 3.3681201 l 1.55633,-0.0139 c 1.46206,-0.0131 1.57524,-0.0181 1.8686703,-0.0831 z M 7.7871417,8.2985689 v -2.49016 l 1.02452,0.0155 c 1.08188,0.0164 1.2097903,0.0309 1.6376103,0.18623 0.57611,0.20911 1.01322,0.58733 1.25995,1.0902 0.19183,0.39098 0.24118,0.59257 0.26125,1.06732 0.0211,0.49894 -0.0524,0.86019 -0.25837,1.27051 -0.39075,0.7783301 -1.02727,1.2010901 -1.9845903,1.3181301 -0.1458,0.0178 -0.64203,0.0324 -1.10273,0.0324 h -0.83764 z m -2.3775,-0.0125 v -3.34728 h -0.48489 -0.48488 v 3.34728 3.3472701 h 0.48488 0.48489 z m -0.30968,-4.13367 c 0.27123,-0.0908 0.43481,-0.3145 0.43481,-0.59458 0,-0.31538 -0.19312,-0.55555 -0.50262,-0.62509 -0.27532,-0.0619 -0.58443,0.10862 -0.70019,0.38617 -0.1972,0.4728 0.28436,0.99543 0.768,0.8335 z"/></symbol>
<symbol id="gscholar" fill-rule="evenodd" clip-rule="evenodd" stroke-linejoin="round" stroke-miterlimit="1.414"><path d="m 2.0113046,4.2307564 c -0.0131,-0.0011 -0.0548,-0.0047 -0.0927,-0.0078 -0.0379,-0.0032 -0.10952,-0.01266 -0.15923,-0.02107 -0.36993,-0.06258 -0.71746,-0.224231 -1.01115995,-0.47033 -0.0613,-0.05133 -0.19564,-0.185706 -0.24706,-0.247046 -0.26394,-0.314861 -0.43269,-0.695775 -0.48331,-1.090955 -0.0471,-0.367796 -6.7e-4,-0.734542 0.13583,-1.072419 0.0755,-0.186783 0.18407,-0.37129905 0.31545,-0.53589905 0.0721,-0.09039 0.2274,-0.245643 0.3178,-0.317794 0.32256995,-0.257479 0.68540995,-0.408438 1.09990995,-0.457621 0.10907,-0.01294 0.34361,-0.01313 0.45706,-3.6e-4 0.42493,0.04782 0.81378,0.214625 1.1423,0.490008 0.0613,0.05142 0.19571,0.1858 0.24705,0.247061 0.28038,0.33460705 0.44847,0.73404905 0.49252,1.17039405 0.0152,0.151119 0.007,0.385588 -0.0197,0.545477 -0.12012,0.725254 -0.61628,1.343582 -1.29713,1.616511 -0.18955,0.07598 -0.35567,0.117567 -0.56666,0.14185 -0.0666,0.0077 -0.28249,0.0142 -0.331,0.01002 z m 0.23037,-0.732955 c 0.31623,-0.05231 0.54757,-0.199299 0.62739,-0.39863 0.0289,-0.07211 0.0343,-0.103953 0.034,-0.199884 -2.3e-4,-0.0722 -0.002,-0.09454 -0.0116,-0.128604 -0.0411,-0.149975 -0.14334,-0.272124 -0.31741,-0.379253 -0.0729,-0.04489 -0.12363,-0.09263 -0.14549,-0.137036 -0.016,-0.03254 -0.0174,-0.0395 -0.0174,-0.08594 0,-0.04672 10e-4,-0.05328 0.0179,-0.08692 0.0211,-0.04277 0.0654,-0.08964 0.13567,-0.143289 0.10038,-0.07667 0.1451,-0.124004 0.17706,-0.18741 0.0296,-0.05864 0.0389,-0.104475 0.0391,-0.191413 2.2e-4,-0.09028 -0.01,-0.141009 -0.045,-0.222112 -0.012,-0.02784 -0.0229,-0.06137 -0.0242,-0.07451 -0.002,-0.02089 -5.5e-4,-0.02578 0.0127,-0.03903 0.0158,-0.01579 0.087,-0.07147 0.28786,-0.22511005 l 0.11916,-0.09113 0.007,0.01744 c 0.0111,0.02708 0.005,0.06008 -0.0234,0.12074405 l -0.0258,0.05561 -0.004,0.193301 c -0.002,0.106315 -0.008,0.262411 -0.0121,0.346881 -0.009,0.177197 -0.0105,0.339665 -0.003,0.389248 0.006,0.03719 0.0255,0.07462 0.0476,0.09102 0.0108,0.008 0.0241,0.01018 0.0671,0.0111 0.0617,0.0013 0.0756,-0.0048 0.0943,-0.04156 0.0101,-0.01982 0.0106,-0.03097 0.0103,-0.227382 -2.2e-4,-0.139759 -0.003,-0.252772 -0.01,-0.349529 -0.008,-0.124018 -0.009,-0.1547 -0.003,-0.231255 0.009,-0.123054 0.002,-0.167398 -0.0397,-0.263352 -0.0207,-0.04725 -0.0293,-0.11356105 -0.0188,-0.14533105 0.004,-0.01341 0.0287,-0.04064 0.0827,-0.0928 0.042,-0.0406 0.0764,-0.07525 0.0764,-0.077 0,-0.0018 -0.35211,-0.0031 -0.78246,-0.0031 l -0.78247,1.24e-4 -0.10887,0.09652 c -0.0599,0.05309 -0.18156,0.160871 -0.27039,0.23951505 -0.0888,0.07864 -0.24899,0.220441 -0.3559,0.315106 l -0.19437995,0.172116 0.29608995,0.0014 0.29609,0.0014 0.003,0.03835 c 0.0221,0.242983 0.14637,0.416092 0.35311,0.491767 0.0669,0.02451 0.1252,0.03567 0.22321,0.04276 0.0699,0.0051 0.0883,0.0079 0.0862,0.01347 -0.0248,0.06468 -0.0272,0.157448 -0.006,0.221182 0.0151,0.0448 0.0256,0.06469 0.0546,0.103149 l 0.0178,0.02371 -0.0891,0.0089 c -0.11041,0.01105 -0.17393,0.02152 -0.2691,0.04433 -0.30495,0.07309 -0.48652,0.203442 -0.53538,0.384368 -0.0132,0.04881 -0.012,0.152664 0.002,0.206842 0.0465,0.175832 0.19686,0.29714 0.44534,0.359267 0.16457,0.04115 0.34953,0.05347 0.47962,0.03195 z m -0.19065,-0.114051 c -0.20122,-0.03281 -0.36626,-0.140885 -0.43448,-0.28453 -0.0855,-0.180032 -0.001,-0.375468 0.20676,-0.479372 0.0917,-0.0458 0.1861,-0.06663 0.30186,-0.06659 0.0932,4e-5 0.15452,0.0096 0.23546,0.03667 0.28011,0.09372 0.41835,0.330872 0.3149,0.540222 -0.0586,0.118572 -0.18763,0.207645 -0.35706,0.246463 -0.0616,0.01411 -0.20174,0.01785 -0.26744,0.0071 z m 0.0927,-1.366605 c -0.13505,-0.03534 -0.27052,-0.165321 -0.3398,-0.326023 -0.0983,-0.228081 -0.0632,-0.475106 0.0823,-0.578958 0.0553,-0.03947 0.0839,-0.04788 0.16214,-0.04772 0.0629,1.26e-4 0.0686,0.0011 0.11405,0.01867 0.16787,0.06503 0.3055,0.243386 0.34615,0.448594 0.0196,0.09912 0.0189,0.173081 -0.003,0.258089 -0.0272,0.107027 -0.10284,0.193939 -0.1952,0.224257 -0.0416,0.01365 -0.12098,0.01512 -0.16693,0.0031 z"/></symbol>
<symbol id="scopus" fill-rule="evenodd" clip-rule="evenodd" stroke-linejoin="round" stroke-miterlimit="1.414"><path d="m 2.0113046,4.2307564 c -0.0131,-0.0011 -0.0548,-0.0047 -0.0927,-0.0078 -0.0379,-0.0032 -0.10952,-0.01266 -0.15923,-0.02107 -0.36993,-0.06258 -0.71746,-0.224231 -1.01115995,-0.47033 -0.0613,-0.05133 -0.19564,-0.185706 -0.24706,-0.247046 -0.26394,-0.314861 -0.43269,-0.695775 -0.48331,-1.090955 -0.0471,-0.367796 -6.7e-4,-0.734542 0.13583,-1.072419 0.0755,-0.186783 0.18407,-0.37129905 0.31545,-0.53589905 0.0721,-0.09039 0.2274,-0.245643 0.3178,-0.317794 0.32256995,-0.257479 0.68540995,-0.408438 1.09990995,-0.457621 0.10907,-0.01294 0.34361,-0.01313 0.45706,-3.6e-4 0.42493,0.04782 0.81378,0.214625 1.1423,0.490008 0.0613,0.05142 0.19571,0.1858 0.24705,0.247061 0.28038,0.33460705 0.44847,0.73404905 0.49252,1.17039405 0.0152,0.151119 0.007,0.385588 -0.0197,0.545477 -0.12012,0.725254 -0.61628,1.343582 -1.29713,1.616511 -0.18955,0.07598 -0.35567,0.117567 -0.56666,0.14185 -0.0666,0.0077 -0.28249,0.0142 -0.331,0.01002 z m 0.23037,-0.732955 c 0.31623,-0.05231 0.54757,-0.199299 0.62739,-0.39863 0.0289,-0.07211 0.0343,-0.103953 0.034,-0.199884 -2.3e-4,-0.0722 -0.002,-0.09454 -0.0116,-0.128604 -0.0411,-0.149975 -0.14334,-0.272124 -0.31741,-0.379253 -0.0729,-0.04489 -0.12363,-0.09263 -0.14549,-0.137036 -0.016,-0.03254 -0.0174,-0.0395 -0.0174,-0.08594 0,-0.04672 10e-4,-0.05328 0.0179,-0.08692 0.0211,-0.04277 0.0654,-0.08964 0.13567,-0.143289 0.10038,-0.07667 0.1451,-0.124004 0.17706,-0.18741 0.0296,-0.05864 0.0389,-0.104475 0.0391,-0.191413 2.2e-4,-0.09028 -0.01,-0.141009 -0.045,-0.222112 -0.012,-0.02784 -0.0229,-0.06137 -0.0242,-0.07451 -0.002,-0.02089 -5.5e-4,-0.02578 0.0127,-0.03903 0.0158,-0.01579 0.087,-0.07147 0.28786,-0.22511005 l 0.11916,-0.09113 0.007,0.01744 c 0.0111,0.02708 0.005,0.06008 -0.0234,0.12074405 l -0.0258,0.05561 -0.004,0.193301 c -0.002,0.106315 -0.008,0.262411 -0.0121,0.346881 -0.009,0.177197 -0.0105,0.339665 -0.003,0.389248 0.006,0.03719 0.0255,0.07462 0.0476,0.09102 0.0108,0.008 0.0241,0.01018 0.0671,0.0111 0.0617,0.0013 0.0756,-0.0048 0.0943,-0.04156 0.0101,-0.01982 0.0106,-0.03097 0.0103,-0.227382 -2.2e-4,-0.139759 -0.003,-0.252772 -0.01,-0.349529 -0.008,-0.124018 -0.009,-0.1547 -0.003,-0.231255 0.009,-0.123054 0.002,-0.167398 -0.0397,-0.263352 -0.0207,-0.04725 -0.0293,-0.11356105 -0.0188,-0.14533105 0.004,-0.01341 0.0287,-0.04064 0.0827,-0.0928 0.042,-0.0406 0.0764,-0.07525 0.0764,-0.077 0,-0.0018 -0.35211,-0.0031 -0.78246,-0.0031 l -0.78247,1.24e-4 -0.10887,0.09652 c -0.0599,0.05309 -0.18156,0.160871 -0.27039,0.23951505 -0.0888,0.07864 -0.24899,0.220441 -0.3559,0.315106 l -0.19437995,0.172116 0.29608995,0.0014 0.29609,0.0014 0.003,0.03835 c 0.0221,0.242983 0.14637,0.416092 0.35311,0.491767 0.0669,0.02451 0.1252,0.03567 0.22321,0.04276 0.0699,0.0051 0.0883,0.0079 0.0862,0.01347 -0.0248,0.06468 -0.0272,0.157448 -0.006,0.221182 0.0151,0.0448 0.0256,0.06469 0.0546,0.103149 l 0.0178,0.02371 -0.0891,0.0089 c -0.11041,0.01105 -0.17393,0.02152 -0.2691,0.04433 -0.30495,0.07309 -0.48652,0.203442 -0.53538,0.384368 -0.0132,0.04881 -0.012,0.152664 0.002,0.206842 0.0465,0.175832 0.19686,0.29714 0.44534,0.359267 0.16457,0.04115 0.34953,0.05347 0.47962,0.03195 z m -0.19065,-0.114051 c -0.20122,-0.03281 -0.36626,-0.140885 -0.43448,-0.28453 -0.0855,-0.180032 -0.001,-0.375468 0.20676,-0.479372 0.0917,-0.0458 0.1861,-0.06663 0.30186,-0.06659 0.0932,4e-5 0.15452,0.0096 0.23546,0.03667 0.28011,0.09372 0.41835,0.330872 0.3149,0.540222 -0.0586,0.118572 -0.18763,0.207645 -0.35706,0.246463 -0.0616,0.01411 -0.20174,0.01785 -0.26744,0.0071 z m 0.0927,-1.366605 c -0.13505,-0.03534 -0.27052,-0.165321 -0.3398,-0.326023 -0.0983,-0.228081 -0.0632,-0.475106 0.0823,-0.578958 0.0553,-0.03947 0.0839,-0.04788 0.16214,-0.04772 0.0629,1.26e-4 0.0686,0.0011 0.11405,0.01867 0.16787,0.06503 0.3055,0.243386 0.34615,0.448594 0.0196,0.09912 0.0189,0.173081 -0.003,0.258089 -0.0272,0.107027 -0.10284,0.193939 -0.1952,0.224257 -0.0416,0.01365 -0.12098,0.01512 -0.16693,0.0031 z"/></symbol>
</svg>
